<svg xmlns:svg="http://www.w3.org/2000/svg" xmlns="http://www.w3.org/2000/svg" viewBox="0 0 371.78668 299.34668" height="299.3" width="371.8"><g transform="matrix(1.3333333,0,0,-1.3333333,0,299.34667)"><g><path d="m94.3 76 c0.6 -4 1.6 -6.5 3.2 -8.1 1.7 -1.6 3.9 -2.2 6.9 -2.5 3.5 0.3 6 1.1 7.6 3.5 1 1.5 1.6 3.9 1.9 7.1 0.2 2.8 0.6 7.7 1.1 13.4 l0 0.2 -0.2 2 -0.2 2 -0.3 2 -0.2 1.9 -0.2 2 -0.3 1.9 -0.2 1.9 -0.3 1.9 -0.3 1.9 -0.2 1.8 -0.3 1.8 0 0.2 -0.2 1.4 -0.3 1.6 -0.3 1.5 -0.2 1.5 -0.3 1.4 -0.3 1.2 -0.4 1.9 -0.6 2 -0.5 2.1 -0.6 2.2 -0.6 2.3 -0.6 2.3 -0.5 2.4 -0.6 2.4 -0.5 2.5 -0.4 2.5 -0.3 2.5 -0.3 2.5 -0.2 2.5 -0.1 2.6 0 2.5 0.1 2.4 0.2 2.5 0.4 2.4 0.6 2.4 0.7 2.3 1.1 2.2 1.2 2.2 0.6 0.9 c-2.3 0.6 -5.1 0.9 -8.1 0.9 -1.2 0 -2.3 0 -3.5 -0.2 -27 -2.3 -16 -32.9 -11.4 -49.7 3.2 -11.7 6.9 -38.9 8.2 -47.2 zm3.2 100.6 c1.1 -0.2 2.1 -0.4 3.3 -0.4 5.6 0 9.2 3 11.2 7.6 1.3 3.1 1.9 7 1.8 11.1 -0.2 3.5 -0.7 6.7 -1.8 9.5 -2.2 5.5 -6.3 9.2 -12.4 9.2 -0.7 0 -1.5 0 -2.1 -0.2 -7.8 -1.1 -11.2 -9 -10.9 -18.5 0.2 -8.9 3.8 -16.5 10.9 -18.3 zm14.5 -44.6 c1 -4.1 1.9 -7.9 2.7 -11.3 3.3 -13.4 6.5 -44.7 7.7 -54.1 1.1 -9.5 4.5 -11.5 11.3 -12.2 6.7 0.6 10.1 2.7 11.2 12.2 1.1 9.4 4.4 40.6 7.7 54.1 0.8 3.4 1.8 7.2 2.8 11.3 3 12.3 5.4 26.8 0 36.1 -3.5 6 -10.1 9.9 -21.6 9.9 -11.7 0 -18.4 -4 -21.7 -9.9 -5.4 -9.3 -3 -23.8 0 -36.1 zm21.6 49.7 0.2 0 c10.5 0.1 15.4 9.7 15.4 21.4 0 11.8 -4.9 21.4 -15.4 21.5 l-0.2 0 c-10.6 0 -15.5 -9.7 -15.5 -21.5 0 -11.8 4.9 -21.4 15.5 -21.4 zm32.8 -8.6 c-3.1 0 -5.8 -0.3 -8.1 -0.9 l0.7 -0.9 1.2 -2.2 1 -2.2 0.8 -2.3 0.6 -2.4 0.4 -2.4 0.2 -2.5 0.1 -2.4 0 -2.6 -0.2 -2.5 -0.2 -2.5 -0.3 -2.5 -0.3 -2.5 -0.5 -2.5 -0.5 -2.5 -0.5 -2.4 -0.6 -2.4 -0.5 -2.3 -0.6 -2.3 -0.6 -2.2 -0.6 -2.1 -0.5 -2 -0.5 -1.9 -0.2 -1.2 -0.3 -1.4 -0.3 -1.5 -0.2 -1.5 -0.3 -1.6 -0.2 -1.4 0 -0.3 -0.3 -1.8 -0.3 -1.8 -0.2 -1.9 -0.3 -1.9 -0.2 -1.9 -0.3 -1.9 -0.2 -2 -0.3 -1.9 -0.2 -2 -0.2 -2 -0.2 -2 0 -0.1 c0.5 -5.8 0.9 -10.7 1.1 -13.5 0.2 -3.2 0.9 -5.6 1.9 -7.1 1.5 -2.3 4 -3.1 7.6 -3.5 3 0.3 5.2 0.9 6.9 2.5 1.6 1.5 2.6 4 3.2 8.1 1.3 8.3 5 35.5 8.2 47.2 4.6 16.8 15.6 47.4 -11.4 49.7 -1.1 0.2 -2.2 0.2 -3.5 0.2 zm0.2 3.2 c1.2 0 2.2 0.2 3.3 0.4 7.1 1.8 10.5 9.3 10.9 18.3 0.3 9.5 -3.1 17.4 -10.9 18.5 -0.7 0.2 -1.4 0.2 -2.1 0.2 -6.2 0 -10.2 -3.7 -12.4 -9.2 -1.1 -2.8 -1.7 -6 -1.8 -9.5 -0.2 -4.1 0.4 -8 1.8 -11.1 2 -4.6 5.6 -7.6 11.2 -7.6 zm32.4 -13.8 c50 -0.7 79.1 -31.3 46 -73.2 C229.8 69.8 204.2 50.7 169.9 38.4 c-1.6 -0.6 -3.3 -1.1 -4.9 -1.7 -3.2 -1.1 -6.4 -2 -9.6 -3 -7.4 -2.1 -14.6 -3.9 -21.6 -5.3 -7.5 -1.5 -14.7 -2.7 -21.7 -3.5 -5 -0.5 -9.8 -0.8 -14.5 -0.9 C65.7 23.2 41.7 31.9 33.9 50.6 24.5 72.9 43.5 104 81.7 127.6 53.4 116.2 2.2 89.5 0 51.2 l0 -4.8 C0.2 42.5 1 38.5 2.2 34.4 10.4 8.6 48.8 -3.5 97.5 0.9 102.3 1.3 107.1 1.8 112 2.6 c7.1 1.1 14.3 2.5 21.7 4.2 7.1 1.7 14.3 3.7 21.6 6 1.6 0.6 3.2 1 4.8 1.6 3.3 1.1 6.5 2.2 9.7 3.4 42.3 15.4 73.7 35.8 92.1 59.3 10.5 13.4 15.9 26 16.9 37 l0 8.5 c-2.9 27.9 -35.5 44.3 -79.8 39.8 " class="style0"/></g></g></svg>
