<?xml version="1.0" encoding="UTF-8" standalone="no"?>
<svg
   xmlns:svg="http://www.w3.org/2000/svg"
   xmlns="http://www.w3.org/2000/svg"
   viewBox="0 0 144.47665 154.1">
  <path
     d="m 573.6,34.9 c -9.3,0 -16.8,7.5 -16.8,16.8 0,9.3 7.5,16.8 16.8,16.8 9.3,0 16.8,-7.5 16.8,-16.8 0,-9.3 -7.5,-16.8 -16.8,-16.8 z m 0.7,7.1 -0.6,2.7 -4.2,1.8 c -0.1,-0.4 -2.5,-1.6 -3,-1.8 0.3,-0.3 0.6,-0.6 0.9,-0.8 2.5,-1.4 4,-1.9 6.9,-1.9 z m 3.2,0.7 c 1.9,0.9 3.1,2 4.3,3.6 -1.1,0.5 -2.2,1.1 -3.2,1.7 l 0,-0.1 -1.7,-1.7 c 0.1,-1.2 0.4,-2.4 0.6,-3.5 z m -13,4.8 c 0.6,0.4 1.4,0.7 2.1,1.2 0.1,1.2 1.1,3.7 0.7,4.8 -1,0.7 -2,1.4 -3,2.2 l 0.1,-0.1 c -0.9,-2.8 -0.6,-5.3 0.1,-8.1 z m 9.9,0.7 c 0.6,0.7 1.4,1.4 2.1,2.2 0,0.9 -0.4,1.7 -0.8,2.6 -0.9,0.4 -1.8,0.9 -2.6,1.3 -0.8,-0.4 -1.6,-0.9 -2.3,-1.3 -0.2,-0.9 -0.4,-1.9 -0.5,-2.8 0.3,-0.2 0.6,-0.4 0.9,-0.5 0,-0.7 2.7,-1.5 3.2,-1.5 z m 8.8,1.2 c 0.1,1.4 0.4,3.5 -0.2,4.7 -1.2,-0.6 -2.3,-1.2 -3.5,-1.8 0.1,-0.5 0.3,-1 0.5,-1.5 1,-0.5 2.1,-0.9 3.2,-1.4 z m -5,6 c 1.2,0.5 2.4,1.1 3.7,1.7 -0.8,0.9 -1.5,1.7 -2.2,2.6 -1.2,0.5 -2.3,1 -3.4,1.6 l 0,-0.1 c -0.1,-1.5 -0.3,-3 -0.4,-4.5 0.7,-0.4 1.5,-0.9 2.3,-1.3 z m -8.6,0.6 c 1.1,0.6 2.2,1.2 3.2,1.7 0.1,1.2 0.3,2.4 0.4,3.6 -0.4,0 -0.7,0.1 -1,0.1 l 0,0.1 c -2.2,-0.6 -4.4,-1.7 -6.1,-3.2 0.9,-0.6 2.4,-2.3 3.5,-2.3 z M 686.8,11 c -8.1,0 -14.6,6.5 -14.6,14.6 0,2.9 0.9,5.8 2.5,8.2 l 0,0 c -3.6,4.2 -7.4,9.4 -10.5,13.9 -3.5,-0.8 -7,-1.6 -10.7,-2 -2.5,0.1 -5,0.1 -7.4,0.2 -2,0.4 -4.1,0.7 -6,1.1 -2,0.6 -4.1,1.3 -6,1.9 l -4.5,1.8 0,0 c -1.3,-0.9 -2.8,-1.4 -4.4,-1.4 -4.2,0 -7.6,3.4 -7.6,7.6 0,4.2 3.4,7.6 7.6,7.6 4.1,0 7.5,-3.3 7.6,-7.4 2.9,-1.2 6.1,-2.3 9.1,-3.2 3.7,-0.7 7.3,-1.1 11,-1.1 2.5,0.3 4.9,0.7 7.3,1.2 -4.3,7.8 -8.5,15.6 -11.7,23.9 -1.3,3.7 -2.6,7.5 -3.8,11.2 -0.6,1.9 -1.2,3.9 -1.7,5.8 -7,-5.5 -14.2,-11.4 -21.3,-16.8 -0.8,-0.4 -1.8,-0.3 -2.7,-0.3 -9.2,6.2 -18.3,12.4 -27.4,18.6 -2.4,-4.3 -8.8,-9.5 -13.8,-6.5 -2.7,2.3 -2.1,3.8 -1.8,6.8 2.5,5.1 6.8,9.6 12.9,9.6 1.2,-0.4 2.4,-1.4 3.6,-2 l 27.3,-18.6 c 0.1,0 0.3,0 0.4,0.1 l 21,16.8 c -1.7,9.1 -3.3,18.3 -4.7,27.4 -1,8.3 -2,16.7 -2.9,25.1 0,1.7 0.1,3.2 0.4,4.9 1.2,2 2.5,2.8 4.4,4 l 4.5,0.9 -0.2,0.2 c 2,-0.2 4,-0.4 6,-0.5 2.4,-1 5.1,-2.4 5.7,-5.1 0,-1 0,-2.1 -0.2,-3.1 -0.7,-0.8 -1.3,-1.5 -1.9,-2.2 -3.3,-2.4 -7.5,-2.6 -11.4,-2.2 0.6,-6.1 1.3,-12.1 2,-18.1 0.6,-4.4 1.3,-8.7 1.9,-13 1.2,-6.7 2.5,-13.5 3.8,-20.2 1,-3.4 1.9,-6.8 2.9,-10.2 1,-2.9 1.9,-5.7 2.9,-8.5 1.2,-3.3 2.5,-6.4 3.8,-9.6 1.2,-2.6 2.5,-5.1 3.8,-7.6 l 4.5,-7.8 2.7,1.8 c 3.8,3.6 7.3,7.7 9.1,12.7 0.3,1.2 2.7,8.4 1.1,9.2 l 0.3,-0.1 c -1.5,1.4 -2.4,3.4 -2.4,5.5 0,4.1 3.4,7.5 7.5,7.5 4.1,0 7.5,-3.4 7.5,-7.5 0,-3.3 -2.1,-6.2 -5.3,-7.2 -0.3,-2.9 -0.9,-5.9 -1.6,-8.5 -0.6,-1.7 -1.3,-3.3 -1.9,-4.9 -1.1,-1.7 -2.1,-3.5 -3.1,-5.2 -1.1,-1.3 -2.2,-2.6 -3.2,-3.9 -1.4,-1.3 -2.8,-2.6 -4.2,-3.8 -0.8,-0.6 -1.6,-1.1 -2.3,-1.6 2.7,-3.9 6.5,-8.8 9.4,-12.4 2.1,1.1 4.4,1.6 6.7,1.6 8.1,0 14.6,-6.5 14.6,-14.6 0,-8.1 -6.5,-14.6 -14.6,-14.6 z"
     transform="translate(-556.83112,-11)"/>
</svg>
