<?xml version="1.0" encoding="UTF-8" standalone="no"?>
<svg
   xmlns:svg="http://www.w3.org/2000/svg"
   xmlns="http://www.w3.org/2000/svg"
   viewBox="0 0 187.95238 150.33199">
  <path
     d="m 114.4,76.6 c -19.8,0 -35.8,16.1 -35.8,35.9 0,19.8 16,35.8 35.8,35.8 19.8,0 35.8,-16 35.8,-35.8 0,-19.8 -16,-35.9 -35.8,-35.9 z m -0.1,6.4 c 16.2,0 29.4,13.2 29.4,29.4 0,16.2 -13.2,29.4 -29.4,29.4 C 98.1,141.8 85,128.7 85,112.4 85,96.2 98.1,83 114.3,83 Z m 15.6,-23.4 c -4.1,-0.3 -4.6,1 -5.8,3.9 -4.3,15.8 -9.1,32.5 -13,47.1 0,2.2 0.6,3 2.4,4 0.5,0 1,0 1.6,0.1 1.3,-0.2 1.9,-1 2.6,-1.8 3.7,-13.7 7.7,-27.5 11.2,-40.6 1.8,1.5 3.8,2.8 6,3.7 2.1,0.3 4.4,0.7 6.5,0.7 1.1,-0.2 2.2,-0.4 3.4,-0.5 1.2,-0.3 2.3,-0.6 3.5,-0.9 0.8,-0.4 1.6,-0.7 2.5,-1 0.5,-0.4 1.1,-0.8 1.7,-1.2 0.2,-0.7 0.4,-1.3 0.7,-1.9 0,-0.5 -0.1,-1 -0.1,-1.4 -1.1,-2.1 -2,-2.4 -4.3,-2.4 -1.8,0.6 -3.7,1.3 -5.5,1.9 -3.5,0.4 -6,0 -9,-1.8 -0.5,-0.5 -1,-1.1 -1.4,-1.7 -0.6,-2.2 -0.6,-5.2 -3,-6.2 z M 153.6,0.1 c -1.2,0 -2.4,0.2 -3.6,0.4 -0.9,0.3 -1.7,0.6 -2.6,1 -0.8,0.5 -1.7,1.1 -2.5,1.7 -1.6,1.5 -2.8,3.3 -4,5 -1.9,4 -1.6,8.1 -0.5,12.1 0.1,0.4 0.3,0.7 0.5,1.1 0.6,1 1.3,2 2,3 3,2.7 5.5,4.4 9.6,5.1 l 3.4,0 c 0.8,-0.2 1.6,-0.4 2.4,-0.5 0.9,-0.3 1.7,-0.6 2.6,-0.9 1.3,-1.1 2.6,-2.1 4,-3.1 0.8,-1 1.5,-2 2.2,-3 l 0.4,0 c 3.2,1.4 6.3,2.8 9.5,4.2 -0.8,2.3 -1.5,4.6 -2.2,6.9 -1.5,2.9 -3.3,5.7 -5,8.5 -1.7,1.9 -3.5,3.7 -5.2,5.6 -0.1,0.1 -0.1,0.3 -0.1,0.4 -0.2,0 -0.3,0 -0.4,0.1 -1.3,1.5 -3.3,2.8 -4.9,4 -3.3,1.8 -7.7,4.5 -11.6,4.5 -1.4,-2.1 -3.8,-3.4 -6.3,-3.4 -4.2,0 -7.6,3.4 -7.6,7.6 0,4.2 3.4,7.6 7.6,7.6 2.9,0 5.5,-1.7 6.8,-4.3 l 0,0 c 1.6,-0.5 3.3,-0.8 5,-1.2 1,-0.4 2,-0.7 3,-1.1 l 6.9,-3.6 c 1.2,-1 2.4,-1.8 3.6,-2.7 2.1,-2.1 4.2,-4.1 6.4,-6.1 0.8,-1.2 1.8,-2.3 2.7,-3.4 3.2,-4.8 6.1,-9.9 7.5,-15.5 0.7,0 3,2 3.2,2.1 2.7,2 5.4,4.1 8.1,6.2 4.2,3.9 8.1,8.1 12,12.3 1.3,1.7 2.6,3.5 4,5.3 2,2.9 3.7,5.9 5.3,9 -1.5,0.2 -3,0.4 -4.4,0.7 -4.3,1.2 -8.4,2.8 -12.4,4.8 -1.2,1 -2.6,2.1 -4,2.9 -1.5,1.3 -2.8,2.5 -4.2,3.7 -1,1 -2,2.1 -2.9,3.2 -3.8,4.9 -7.1,10.5 -9.1,16.3 -1.2,4.8 -2.5,9.6 -2.5,14.5 l 0,0 c -1.1,-0.3 -2.3,-0.4 -3.5,-0.4 -5.7,0 -10.4,3.1 -10.4,6.9 0,3.8 4.7,6.9 10.4,6.9 5.2,0 9.6,-2.6 10.3,-6 0.2,-3.5 0.4,-7.1 0.4,-10.3 0.6,-3.1 1.3,-6.3 1.9,-9.4 0.6,-1.6 1.3,-3.2 1.9,-4.7 1.1,-2.2 2.3,-4.3 3.5,-6.4 0.8,-1.1 1.6,-2.1 2.4,-3.1 2.6,-2.8 5.4,-5.4 8.6,-7.6 4.1,-2.1 8.2,-3.8 12.7,-4.8 2.5,-0.3 5.1,-0.5 7.7,-0.7 0.4,-0.3 0.9,-0.5 1.3,-0.7 0.8,-1 1.2,-1.9 1.2,-3.2 -1,-3.3 -2.7,-6.4 -4.3,-9.4 -1.3,-2 -2.5,-4.1 -3.7,-6 -3.1,-4.4 -6.7,-8.5 -10.2,-12.6 -2.5,-2.4 -5.1,-4.8 -7.5,-7.1 -5,-3.8 -10.2,-7.7 -15.5,-11.1 -3,-1.5 -5.9,-3.1 -8.9,-4.5 -1.9,-0.6 -3.7,-1.3 -5.6,-1.9 -0.3,-1.8 -0.6,-3.6 -0.8,-5.3 C 167,7.1 165.5,5.2 163.5,3.2 160.4,0.8 157.2,0 153.6,0.1 Z M 234,112.5 c 0,4.2 -3.4,7.6 -7.6,7.6 -4.2,0 -7.6,-3.4 -7.6,-7.6 0,-4.2 3.4,-7.6 7.6,-7.6 4.2,0 7.6,3.4 7.6,7.6 z m -7.6,-35.9 c -19.8,0 -35.8,16 -35.8,35.8 0,19.8 16,35.8 35.8,35.8 19.8,0 35.8,-16 35.8,-35.8 0,-19.8 -16,-35.8 -35.8,-35.8 z m -0.1,6.4 c 16.2,0 29.4,13.2 29.4,29.4 0,16.2 -13.2,29.4 -29.4,29.4 C 210.1,141.7 197,128.6 197,112.4 197,96.2 210.1,83.1 226.3,83 Z"
     transform="translate(-76.182457,-0.09178296)"/>
</svg>
