<?xml version="1.0" encoding="UTF-8" standalone="no"?>
<svg
   xmlns:svg="http://www.w3.org/2000/svg"
   xmlns="http://www.w3.org/2000/svg"
   viewBox="0 0 229.01312 150.29153">
  <path
     d="m 470.9,35.2 c -0.8,0.1 -1.6,0.3 -2.5,0.4 -2.7,1.5 -3.3,3.4 -3.9,6.3 l 0,3.3 c 0.5,1.7 1.1,3.5 1.7,5.2 -1.8,0.5 -3.6,1 -5.3,1.6 -1.6,0.6 -3.2,1.3 -4.8,1.9 -3.8,2.1 -7.6,4.2 -11.1,6.6 -2.2,1.8 -4.5,3.6 -6.7,5.5 -3.1,3.2 -6.2,6.3 -9.3,9.5 -5.1,-0.6 -10.3,-1.1 -15.3,-1.4 -4.9,-0.2 -9.9,0 -14.7,0.1 -4.1,0.4 -8.3,0.9 -12.5,1.4 -1.8,0.3 -3.6,0.5 -5.3,0.9 -3.8,1 -7.6,1.9 -11.3,2.9 -4,1.2 -7.9,2.5 -11.9,3.8 -11.5,4.8 -23.5,10 -34.7,15.4 -1.4,-1.2 -3.1,-1.8 -4.9,-1.8 -4.1,0 -7.5,3.4 -7.5,7.5 0,4.1 3.4,7.5 7.5,7.5 3.8,0 7,-3 7.4,-6.8 6,-2.8 12.5,-5.8 18.4,-8.6 5.3,-2.2 10.5,-4.3 15.8,-6.4 9,-2.9 18.2,-6 27.6,-7.7 4,-0.4 8.1,-0.9 12.1,-1.3 3.8,-0.1 7.6,-0.1 11.4,-0.2 6.5,0.4 13,0.9 19.4,1.9 4.6,1.1 9.1,2.2 13.7,3.4 4.2,1.6 8.5,3.2 12.8,4.8 4.1,2.2 8.1,4.7 12,7.1 1.5,1.8 2.1,2.3 4.5,2.7 1.1,-0.3 2.2,-0.6 3.4,-0.9 1,-0.8 2,-1.7 3,-2.5 0.8,-1.3 1.8,-2.7 2.7,-4 1.1,-2.3 1.4,-4.8 1.4,-7.3 -0.2,-0.5 -0.3,-1 -0.4,-1.4 -0.5,-0.8 -1.1,-1.6 -1.7,-2.3 -3.9,-2.6 -7.3,-0.5 -10.2,2.4 -0.8,1.2 -2.8,3.5 -2.8,4.9 -3.2,-1.8 -6.5,-3.6 -9.7,-5.3 -0.2,-0.1 -0.4,-0.1 -0.5,-0.1 -4.2,-2.2 -9,-3.7 -13.6,-5.2 -2.6,-0.7 -5.3,-1.5 -7.9,-2.1 0.3,-0.2 1.7,-1.5 1.7,-1.9 3.7,-3.5 7.5,-6.9 11.7,-9.9 2.7,-1.6 5.4,-3.1 8.1,-4.6 1.7,-0.6 3.3,-1.3 5,-1.9 3.3,-1.1 7.4,-3 10.9,-3 2.7,-1 4.1,-3.5 4.5,-6.2 0,-3.5 -0.4,-6.6 -2.1,-9.6 -1.3,-1.8 -2.9,-4.1 -5.3,-4.5 l -0.9,0 z M 358,52.2 c -8.1,0 -14.6,6.5 -14.6,14.6 0,8.1 6.5,14.6 14.6,14.6 8.1,0 14.6,-6.5 14.6,-14.6 0,-8.1 -6.5,-14.6 -14.6,-14.6 z m 92.9,63.2 c -2.2,-0.4 -4.3,-0.6 -6.5,-0.9 -2.2,-0.6 -4.5,-1.3 -6.6,-1.9 -7.3,-3 -14.5,-6 -21.7,-9.1 -1.7,-0.5 -3.5,-1 -5.1,-1.4 -4.8,-0.9 -9.5,-0.9 -14.3,-0.4 -2.2,0.5 -4.5,1.1 -6.7,1.7 -2.1,0.8 -4.1,1.6 -6.1,2.4 -2.1,-0.2 -3.5,-1.2 -3.9,-3.3 0,-1.2 0.6,-2.2 1.3,-3.2 4.8,-1.9 9.4,-3.6 14.5,-4.7 1.4,-0.1 2.7,-0.3 4.1,-0.4 l 5.8,0 c 2.4,0.3 4.8,0.6 7.2,1 8.4,2.4 16.5,6.2 24.6,9.5 0.6,0.3 1.3,0.6 2,1 2.7,0.7 5.4,1.4 8.1,2.2 1.2,0.1 2.5,0.2 3.8,0.4 6.8,0 14.1,-1.1 20.4,-3.9 0.6,-0.1 1.2,-0.3 1.8,-0.4 7.3,-2.7 14.7,-5.4 22.3,-7.2 l 7.2,-0.9 4.5,0 c 5.6,0.3 10.6,1.4 15.8,3.6 1.7,0.9 3.3,1.7 5,2.6 3,1.8 5.8,4 8.6,6.2 0.4,0.6 0.9,1.4 1.4,2.1 l 0,1.7 c -0.4,0.6 -0.8,1.3 -1.2,1.9 -0.5,0.2 -1,0.4 -1.4,0.7 -0.7,-0.1 -1.4,-0.1 -2.2,-0.1 -1.6,-1.3 -3.2,-2.5 -4.8,-3.7 -3.6,-2.2 -7.3,-4.6 -11.2,-6.1 -1.9,-0.5 -3.7,-1 -5.6,-1.4 -1.7,-0.1 -3.3,-0.3 -4.9,-0.4 -4.2,0 -8.5,0.4 -12.6,1.4 -1.7,0.4 -3.5,0.9 -5.1,1.4 -4.8,1.7 -9.5,3.5 -14.3,5.2 -3.2,0.6 -6.6,1.9 -9.7,2.9 -1.2,0.2 -2.4,0.4 -3.5,0.7 -1.9,0.2 -3.7,0.4 -5.6,0.7 -1.9,0 -3.7,0 -5.6,0.1 z m -106.3,18.5 c -0.8,-0.5 -1.5,-1 -2.2,-1.4 -0.9,-2.2 -0.6,-3.1 0.7,-5 2.7,-1.6 5.3,-3.2 8.1,-4.7 3.7,-1.6 7.5,-3.2 11.2,-4.8 4.3,-1.3 8.6,-2.6 13,-3.8 1.7,-0.4 3.5,-0.7 5.3,-1 4.1,-0.4 8.2,-0.9 12.3,-1.3 5,0 9.9,0.3 14.8,0.9 3,0.7 6,1.4 9.1,2.2 3.6,1.2 7.2,2.5 10.8,3.8 5.1,2.3 10.5,3.6 15.9,4.8 3,0 6,0.1 9.1,0.1 2.7,-0.5 5.6,-1.3 8.1,-2.4 2.4,-0.4 4.5,0.3 5,3 0,1.7 -0.9,2.9 -2.2,3.7 -2.5,0.8 -5,1.6 -7.4,2.4 -10.2,1.3 -20.6,0 -29.8,-4.6 -3.5,-1.1 -7.1,-2.6 -10.5,-3.8 -3,-0.7 -6,-1.4 -9.1,-2.2 -2,-0.3 -4,-0.5 -6,-0.7 -9.5,-0.4 -18.3,0.6 -27.6,2.9 -4.4,1.3 -8.8,2.8 -13,4.3 -4.8,2.3 -9.5,4.9 -14.2,7.4 -0.5,0 -1,0 -1.4,0.1 z"
     transform="translate(-310.22293,-0.09178296)"/>
</svg>
